<?xml version="1.0" encoding="utf-8"?><svg xmlns="http://www.w3.org/2000/svg" xmlns:xlink="http://www.w3.org/1999/xlink"><symbol fill="none" viewBox="0 0 16 16" id="fire" xmlns="http://www.w3.org/2000/svg"><g clip-path="url(#aclip0_2_1108)"><path d="M9.5 0c-3.41 1.965-3 7.5-3 7.5S5 7 5 4.75C3.21 5.788 2 7.782 2 10a6 6 0 1012 0c0-4.875-4.5-5.875-4.5-10zm-.973 13.933A2.25 2.25 0 017.44 9.566c2.91-.726 3.275-2.362 3.275-2.362s1.452 5.821-2.187 6.729z" fill="#91958F"/></g><defs><clipPath id="aclip0_2_1108"><path fill="#fff" d="M0 0h16v16H0z"/></clipPath></defs></symbol><symbol fill="none" viewBox="0 0 34 34" id="phone" xmlns="http://www.w3.org/2000/svg"><path d="M33.666 25.2v5a3.332 3.332 0 01-3.633 3.334 32.983 32.983 0 01-14.383-5.116 32.501 32.501 0 01-10-10A32.983 32.983 0 01.533 3.968 3.333 3.333 0 013.85.333h5a3.333 3.333 0 013.333 2.867 21.4 21.4 0 001.167 4.683 3.333 3.333 0 01-.75 3.517l-2.117 2.117a26.666 26.666 0 0010 10L22.6 21.4a3.333 3.333 0 013.516-.75 21.4 21.4 0 004.684 1.166 3.334 3.334 0 012.866 3.384z" fill="#15AC52"/></symbol></svg>